<svg xmlns="http://www.w3.org/2000/svg" xmlns:xlink="http://www.w3.org/1999/xlink" width="500" zoomAndPan="magnify" viewBox="0 0 375 374.999991" height="500" preserveAspectRatio="xMidYMid meet" version="1.0"><defs><g/><clipPath id="d238eb5c12"><path d="M 95.011719 218.035156 L 102.894531 218.035156 L 102.894531 225.917969 L 95.011719 225.917969 Z M 95.011719 218.035156 " clip-rule="nonzero"/></clipPath><clipPath id="95e5bcf6dd"><path d="M 98.953125 218.035156 C 96.777344 218.035156 95.011719 219.800781 95.011719 221.976562 C 95.011719 224.152344 96.777344 225.917969 98.953125 225.917969 C 101.128906 225.917969 102.894531 224.152344 102.894531 221.976562 C 102.894531 219.800781 101.128906 218.035156 98.953125 218.035156 " clip-rule="nonzero"/></clipPath><clipPath id="c5d5220955"><path d="M 26.535156 217.871094 L 34.617188 217.871094 L 34.617188 225.953125 L 26.535156 225.953125 Z M 26.535156 217.871094 " clip-rule="nonzero"/></clipPath><clipPath id="6a0437ac93"><path d="M 37.789062 217.871094 L 45.871094 217.871094 L 45.871094 225.953125 L 37.789062 225.953125 Z M 37.789062 217.871094 " clip-rule="nonzero"/></clipPath><clipPath id="0963733a3b"><path d="M 49.042969 217.871094 L 57.125 217.871094 L 57.125 225.953125 L 49.042969 225.953125 Z M 49.042969 217.871094 " clip-rule="nonzero"/></clipPath><clipPath id="d12360be3b"><path d="M 60.757812 217.871094 L 68.839844 217.871094 L 68.839844 225.953125 L 60.757812 225.953125 Z M 60.757812 217.871094 " clip-rule="nonzero"/></clipPath><clipPath id="918c37a7f3"><path d="M 72.46875 217.871094 L 80.550781 217.871094 L 80.550781 225.953125 L 72.46875 225.953125 Z M 72.46875 217.871094 " clip-rule="nonzero"/></clipPath><clipPath id="52dfda0999"><path d="M 83.722656 217.871094 L 91.804688 217.871094 L 91.804688 225.953125 L 83.722656 225.953125 Z M 83.722656 217.871094 " clip-rule="nonzero"/></clipPath><clipPath id="30b9414071"><path d="M 106.230469 217.871094 L 114.316406 217.871094 L 114.316406 225.953125 L 106.230469 225.953125 Z M 106.230469 217.871094 " clip-rule="nonzero"/></clipPath><clipPath id="11464ee53e"><path d="M 117.945312 217.871094 L 126.027344 217.871094 L 126.027344 225.953125 L 117.945312 225.953125 Z M 117.945312 217.871094 " clip-rule="nonzero"/></clipPath><clipPath id="85436b8c78"><path d="M 129.199219 217.871094 L 137.28125 217.871094 L 137.28125 225.953125 L 129.199219 225.953125 Z M 129.199219 217.871094 " clip-rule="nonzero"/></clipPath><clipPath id="1bd1483ed9"><path d="M 140.453125 217.871094 L 148.535156 217.871094 L 148.535156 225.953125 L 140.453125 225.953125 Z M 140.453125 217.871094 " clip-rule="nonzero"/></clipPath><clipPath id="fd2a6176ce"><path d="M 151.707031 217.871094 L 159.789062 217.871094 L 159.789062 225.953125 L 151.707031 225.953125 Z M 151.707031 217.871094 " clip-rule="nonzero"/></clipPath><clipPath id="e74dc00226"><path d="M 163.421875 217.871094 L 171.503906 217.871094 L 171.503906 225.953125 L 163.421875 225.953125 Z M 163.421875 217.871094 " clip-rule="nonzero"/></clipPath><clipPath id="1b2405c2fe"><path d="M 174.675781 217.871094 L 182.757812 217.871094 L 182.757812 225.953125 L 174.675781 225.953125 Z M 174.675781 217.871094 " clip-rule="nonzero"/></clipPath><clipPath id="1e105bb854"><path d="M 185.929688 217.871094 L 194.011719 217.871094 L 194.011719 225.953125 L 185.929688 225.953125 Z M 185.929688 217.871094 " clip-rule="nonzero"/></clipPath><clipPath id="111c0fec33"><path d="M 197.644531 217.871094 L 205.726562 217.871094 L 205.726562 225.953125 L 197.644531 225.953125 Z M 197.644531 217.871094 " clip-rule="nonzero"/></clipPath><clipPath id="016494940e"><path d="M 209.359375 217.871094 L 217.441406 217.871094 L 217.441406 225.953125 L 209.359375 225.953125 Z M 209.359375 217.871094 " clip-rule="nonzero"/></clipPath><clipPath id="a7d21fb7f2"><path d="M 220.613281 217.871094 L 228.695312 217.871094 L 228.695312 225.953125 L 220.613281 225.953125 Z M 220.613281 217.871094 " clip-rule="nonzero"/></clipPath><clipPath id="62a10aece3"><path d="M 231.867188 217.871094 L 239.949219 217.871094 L 239.949219 225.953125 L 231.867188 225.953125 Z M 231.867188 217.871094 " clip-rule="nonzero"/></clipPath><clipPath id="8e09999ca8"><path d="M 243.121094 217.871094 L 251.203125 217.871094 L 251.203125 225.953125 L 243.121094 225.953125 Z M 243.121094 217.871094 " clip-rule="nonzero"/></clipPath><clipPath id="935f7c7d3b"><path d="M 254.832031 217.871094 L 262.917969 217.871094 L 262.917969 225.953125 L 254.832031 225.953125 Z M 254.832031 217.871094 " clip-rule="nonzero"/></clipPath><clipPath id="9a8db5c5ff"><path d="M 266.089844 217.871094 L 274.171875 217.871094 L 274.171875 225.953125 L 266.089844 225.953125 Z M 266.089844 217.871094 " clip-rule="nonzero"/></clipPath><clipPath id="1e34a03e3a"><path d="M 277.34375 217.871094 L 285.425781 217.871094 L 285.425781 225.953125 L 277.34375 225.953125 Z M 277.34375 217.871094 " clip-rule="nonzero"/></clipPath><clipPath id="54283a8f93"><path d="M 288.597656 217.871094 L 296.679688 217.871094 L 296.679688 225.953125 L 288.597656 225.953125 Z M 288.597656 217.871094 " clip-rule="nonzero"/></clipPath><clipPath id="2c213e065a"><path d="M 300.308594 217.871094 L 308.390625 217.871094 L 308.390625 225.953125 L 300.308594 225.953125 Z M 300.308594 217.871094 " clip-rule="nonzero"/></clipPath><clipPath id="c22220ab9f"><path d="M 311.5625 217.871094 L 319.644531 217.871094 L 319.644531 225.953125 L 311.5625 225.953125 Z M 311.5625 217.871094 " clip-rule="nonzero"/></clipPath><clipPath id="8e347a8ca3"><path d="M 322.816406 217.871094 L 330.898438 217.871094 L 330.898438 225.953125 L 322.816406 225.953125 Z M 322.816406 217.871094 " clip-rule="nonzero"/></clipPath><clipPath id="dfbca73378"><path d="M 334.53125 217.871094 L 342.613281 217.871094 L 342.613281 225.953125 L 334.53125 225.953125 Z M 334.53125 217.871094 " clip-rule="nonzero"/></clipPath><clipPath id="e577887f20"><path d="M 94.976562 218.035156 L 103.058594 218.035156 L 103.058594 226.117188 L 94.976562 226.117188 Z M 94.976562 218.035156 " clip-rule="nonzero"/></clipPath><clipPath id="6d496592bb"><path d="M 95.011719 168.304688 L 103.535156 168.304688 L 103.535156 209.867188 L 95.011719 209.867188 Z M 95.011719 168.304688 " clip-rule="nonzero"/></clipPath><clipPath id="dd2704c097"><path d="M 89.117188 166.972656 L 109.773438 166.972656 L 109.773438 212.769531 L 89.117188 212.769531 Z M 89.117188 166.972656 " clip-rule="nonzero"/></clipPath></defs><rect x="-37.5" width="450" fill="#ffffff" y="-37.499999" height="449.999989" fill-opacity="1"/><rect x="-37.5" width="450" fill="#ffffff" y="-37.499999" height="449.999989" fill-opacity="1"/><rect x="-37.5" width="450" fill="#ffffff" y="-37.499999" height="449.999989" fill-opacity="1"/><g fill="#000000" fill-opacity="1"><g transform="translate(93.118021, 207.400504)"><g><path d="M 4.597656 0 L 8.023438 0 L 8.023438 -54.746094 L 8.191406 -54.746094 L 36.859375 0 L 40.871094 0 L 69.539062 -54.746094 L 69.707031 -54.746094 L 69.707031 0 L 73.132812 0 L 73.132812 -58.589844 L 67.703125 -58.589844 L 38.867188 -3.675781 L 38.78125 -3.675781 L 10.03125 -58.589844 L 4.597656 -58.589844 Z M 4.597656 0 "/></g></g></g><g fill="#000000" fill-opacity="1"><g transform="translate(170.849414, 207.400504)"><g><path d="M 0.667969 0 L 4.347656 0 L 11.449219 -15.210938 L 48.894531 -15.210938 L 56 0 L 59.675781 0 L 32.261719 -58.589844 L 28.082031 -58.589844 Z M 12.871094 -18.472656 L 30.089844 -55.414062 L 30.257812 -55.414062 L 47.476562 -18.472656 Z M 12.871094 -18.472656 "/></g></g></g><g fill="#000000" fill-opacity="1"><g transform="translate(231.195726, 207.400504)"><g><path d="M 28.835938 -43.546875 C 18.304688 -43.546875 10.28125 -38.949219 7.1875 -31.175781 L 7.105469 -31.175781 L 6.9375 -41.875 L 3.761719 -41.875 L 3.761719 0 L 7.105469 0 L 7.105469 -20.226562 C 7.105469 -32.597656 15.128906 -40.371094 28.585938 -40.371094 C 38.949219 -40.371094 45.21875 -34.6875 45.21875 -25.242188 L 45.21875 0 L 48.5625 0 L 48.5625 -25.410156 C 48.5625 -36.777344 41.207031 -43.546875 28.835938 -43.546875 Z M 28.835938 -43.546875 "/></g></g></g><g fill="#000000" fill-opacity="1"><g transform="translate(283.100229, 207.400504)"><g><path d="M 4.597656 0 L 29.671875 0 C 50.652344 0 62.269531 -10.449219 62.269531 -29.253906 C 62.269531 -48.144531 50.652344 -58.589844 29.671875 -58.589844 L 4.597656 -58.589844 Z M 8.023438 -3.257812 L 8.023438 -55.332031 L 29.671875 -55.332031 C 48.394531 -55.332031 58.84375 -46.054688 58.84375 -29.253906 C 58.84375 -12.539062 48.394531 -3.257812 29.671875 -3.257812 Z M 8.023438 -3.257812 "/></g></g></g><g clip-path="url(#d238eb5c12)"><g clip-path="url(#95e5bcf6dd)"><path fill="#d82f2f" d="M 95.011719 218.035156 L 102.894531 218.035156 L 102.894531 225.917969 L 95.011719 225.917969 Z M 95.011719 218.035156 " fill-opacity="1" fill-rule="nonzero"/></g></g><g clip-path="url(#c5d5220955)"><path fill="#000000" d="M 30.574219 217.871094 C 28.339844 217.871094 26.535156 219.679688 26.535156 221.910156 C 26.535156 224.144531 28.339844 225.953125 30.574219 225.953125 C 32.808594 225.953125 34.617188 224.144531 34.617188 221.910156 C 34.617188 219.679688 32.808594 217.871094 30.574219 217.871094 Z M 30.574219 225.144531 C 28.789062 225.144531 27.339844 223.699219 27.339844 221.910156 C 27.339844 220.125 28.789062 218.679688 30.574219 218.679688 C 32.359375 218.679688 33.808594 220.125 33.808594 221.910156 C 33.808594 223.699219 32.359375 225.144531 30.574219 225.144531 Z M 30.574219 225.144531 " fill-opacity="1" fill-rule="nonzero"/></g><g clip-path="url(#6a0437ac93)"><path fill="#000000" d="M 41.828125 217.871094 C 39.597656 217.871094 37.789062 219.679688 37.789062 221.910156 C 37.789062 224.144531 39.597656 225.953125 41.828125 225.953125 C 44.0625 225.953125 45.871094 224.144531 45.871094 221.910156 C 45.871094 219.679688 44.0625 217.871094 41.828125 217.871094 Z M 41.828125 225.144531 C 40.042969 225.144531 38.59375 223.699219 38.59375 221.910156 C 38.59375 220.125 40.042969 218.679688 41.828125 218.679688 C 43.613281 218.679688 45.0625 220.125 45.0625 221.910156 C 45.0625 223.699219 43.613281 225.144531 41.828125 225.144531 Z M 41.828125 225.144531 " fill-opacity="1" fill-rule="nonzero"/></g><g clip-path="url(#0963733a3b)"><path fill="#000000" d="M 53.082031 217.871094 C 50.851562 217.871094 49.042969 219.679688 49.042969 221.910156 C 49.042969 224.144531 50.851562 225.953125 53.082031 225.953125 C 55.316406 225.953125 57.125 224.144531 57.125 221.910156 C 57.125 219.679688 55.316406 217.871094 53.082031 217.871094 Z M 53.082031 225.144531 C 51.296875 225.144531 49.851562 223.699219 49.851562 221.910156 C 49.851562 220.125 51.296875 218.679688 53.082031 218.679688 C 54.867188 218.679688 56.316406 220.125 56.316406 221.910156 C 56.316406 223.699219 54.867188 225.144531 53.082031 225.144531 Z M 53.082031 225.144531 " fill-opacity="1" fill-rule="nonzero"/></g><g clip-path="url(#d12360be3b)"><path fill="#000000" d="M 64.796875 217.871094 C 62.566406 217.871094 60.757812 219.679688 60.757812 221.910156 C 60.757812 224.144531 62.566406 225.953125 64.796875 225.953125 C 67.03125 225.953125 68.839844 224.144531 68.839844 221.910156 C 68.839844 219.679688 67.03125 217.871094 64.796875 217.871094 Z M 64.796875 225.144531 C 63.011719 225.144531 61.566406 223.699219 61.566406 221.910156 C 61.566406 220.125 63.011719 218.679688 64.796875 218.679688 C 66.582031 218.679688 68.03125 220.125 68.03125 221.910156 C 68.03125 223.699219 66.582031 225.144531 64.796875 225.144531 Z M 64.796875 225.144531 " fill-opacity="1" fill-rule="nonzero"/></g><g clip-path="url(#918c37a7f3)"><path fill="#000000" d="M 76.511719 217.871094 C 74.277344 217.871094 72.46875 219.679688 72.46875 221.910156 C 72.46875 224.144531 74.277344 225.953125 76.511719 225.953125 C 78.742188 225.953125 80.550781 224.144531 80.550781 221.910156 C 80.550781 219.679688 78.742188 217.871094 76.511719 217.871094 Z M 76.511719 225.144531 C 74.726562 225.144531 73.277344 223.699219 73.277344 221.910156 C 73.277344 220.125 74.726562 218.679688 76.511719 218.679688 C 78.296875 218.679688 79.746094 220.125 79.746094 221.910156 C 79.746094 223.699219 78.296875 225.144531 76.511719 225.144531 Z M 76.511719 225.144531 " fill-opacity="1" fill-rule="nonzero"/></g><g clip-path="url(#52dfda0999)"><path fill="#000000" d="M 87.765625 217.871094 C 85.53125 217.871094 83.722656 219.679688 83.722656 221.910156 C 83.722656 224.144531 85.53125 225.953125 87.765625 225.953125 C 90 225.953125 91.804688 224.144531 91.804688 221.910156 C 91.804688 219.679688 90 217.871094 87.765625 217.871094 Z M 87.765625 225.144531 C 85.980469 225.144531 84.53125 223.699219 84.53125 221.910156 C 84.53125 220.125 85.980469 218.679688 87.765625 218.679688 C 89.550781 218.679688 91 220.125 91 221.910156 C 91 223.699219 89.550781 225.144531 87.765625 225.144531 Z M 87.765625 225.144531 " fill-opacity="1" fill-rule="nonzero"/></g><g clip-path="url(#30b9414071)"><path fill="#000000" d="M 110.273438 217.871094 C 108.039062 217.871094 106.230469 219.679688 106.230469 221.910156 C 106.230469 224.144531 108.039062 225.953125 110.273438 225.953125 C 112.507812 225.953125 114.316406 224.144531 114.316406 221.910156 C 114.316406 219.679688 112.507812 217.871094 110.273438 217.871094 Z M 110.273438 225.144531 C 108.488281 225.144531 107.039062 223.699219 107.039062 221.910156 C 107.039062 220.125 108.488281 218.679688 110.273438 218.679688 C 112.058594 218.679688 113.507812 220.125 113.507812 221.910156 C 113.507812 223.699219 112.058594 225.144531 110.273438 225.144531 Z M 110.273438 225.144531 " fill-opacity="1" fill-rule="nonzero"/></g><g clip-path="url(#11464ee53e)"><path fill="#000000" d="M 121.988281 217.871094 C 119.753906 217.871094 117.945312 219.679688 117.945312 221.910156 C 117.945312 224.144531 119.753906 225.953125 121.988281 225.953125 C 124.21875 225.953125 126.027344 224.144531 126.027344 221.910156 C 126.027344 219.679688 124.21875 217.871094 121.988281 217.871094 Z M 121.988281 225.144531 C 120.199219 225.144531 118.753906 223.699219 118.753906 221.910156 C 118.753906 220.125 120.199219 218.679688 121.988281 218.679688 C 123.773438 218.679688 125.21875 220.125 125.21875 221.910156 C 125.21875 223.699219 123.773438 225.144531 121.988281 225.144531 Z M 121.988281 225.144531 " fill-opacity="1" fill-rule="nonzero"/></g><g clip-path="url(#85436b8c78)"><path fill="#000000" d="M 133.242188 217.871094 C 131.007812 217.871094 129.199219 219.679688 129.199219 221.910156 C 129.199219 224.144531 131.007812 225.953125 133.242188 225.953125 C 135.472656 225.953125 137.28125 224.144531 137.28125 221.910156 C 137.28125 219.679688 135.472656 217.871094 133.242188 217.871094 Z M 133.242188 225.144531 C 131.453125 225.144531 130.007812 223.699219 130.007812 221.910156 C 130.007812 220.125 131.453125 218.679688 133.242188 218.679688 C 135.027344 218.679688 136.472656 220.125 136.472656 221.910156 C 136.472656 223.699219 135.027344 225.144531 133.242188 225.144531 Z M 133.242188 225.144531 " fill-opacity="1" fill-rule="nonzero"/></g><g clip-path="url(#1bd1483ed9)"><path fill="#000000" d="M 144.496094 217.871094 C 142.261719 217.871094 140.453125 219.679688 140.453125 221.910156 C 140.453125 224.144531 142.261719 225.953125 144.496094 225.953125 C 146.726562 225.953125 148.535156 224.144531 148.535156 221.910156 C 148.535156 219.679688 146.726562 217.871094 144.496094 217.871094 Z M 144.496094 225.144531 C 142.707031 225.144531 141.261719 223.699219 141.261719 221.910156 C 141.261719 220.125 142.707031 218.679688 144.496094 218.679688 C 146.28125 218.679688 147.726562 220.125 147.726562 221.910156 C 147.726562 223.699219 146.28125 225.144531 144.496094 225.144531 Z M 144.496094 225.144531 " fill-opacity="1" fill-rule="nonzero"/></g><g clip-path="url(#fd2a6176ce)"><path fill="#000000" d="M 155.75 217.871094 C 153.515625 217.871094 151.707031 219.679688 151.707031 221.910156 C 151.707031 224.144531 153.515625 225.953125 155.75 225.953125 C 157.980469 225.953125 159.789062 224.144531 159.789062 221.910156 C 159.789062 219.679688 157.980469 217.871094 155.75 217.871094 Z M 155.75 225.144531 C 153.964844 225.144531 152.515625 223.699219 152.515625 221.910156 C 152.515625 220.125 153.964844 218.679688 155.75 218.679688 C 157.535156 218.679688 158.980469 220.125 158.980469 221.910156 C 158.980469 223.699219 157.535156 225.144531 155.75 225.144531 Z M 155.75 225.144531 " fill-opacity="1" fill-rule="nonzero"/></g><g clip-path="url(#e74dc00226)"><path fill="#000000" d="M 167.460938 217.871094 C 165.230469 217.871094 163.421875 219.679688 163.421875 221.910156 C 163.421875 224.144531 165.230469 225.953125 167.460938 225.953125 C 169.695312 225.953125 171.503906 224.144531 171.503906 221.910156 C 171.503906 219.679688 169.695312 217.871094 167.460938 217.871094 Z M 167.460938 225.144531 C 165.675781 225.144531 164.230469 223.699219 164.230469 221.910156 C 164.230469 220.125 165.675781 218.679688 167.460938 218.679688 C 169.25 218.679688 170.695312 220.125 170.695312 221.910156 C 170.695312 223.699219 169.25 225.144531 167.460938 225.144531 Z M 167.460938 225.144531 " fill-opacity="1" fill-rule="nonzero"/></g><g clip-path="url(#1b2405c2fe)"><path fill="#000000" d="M 178.714844 217.871094 C 176.484375 217.871094 174.675781 219.679688 174.675781 221.910156 C 174.675781 224.144531 176.484375 225.953125 178.714844 225.953125 C 180.949219 225.953125 182.757812 224.144531 182.757812 221.910156 C 182.757812 219.679688 180.949219 217.871094 178.714844 217.871094 Z M 178.714844 225.144531 C 176.929688 225.144531 175.484375 223.699219 175.484375 221.910156 C 175.484375 220.125 176.929688 218.679688 178.714844 218.679688 C 180.503906 218.679688 181.949219 220.125 181.949219 221.910156 C 181.949219 223.699219 180.503906 225.144531 178.714844 225.144531 Z M 178.714844 225.144531 " fill-opacity="1" fill-rule="nonzero"/></g><g clip-path="url(#1e105bb854)"><path fill="#000000" d="M 189.96875 217.871094 C 187.738281 217.871094 185.929688 219.679688 185.929688 221.910156 C 185.929688 224.144531 187.738281 225.953125 189.96875 225.953125 C 192.203125 225.953125 194.011719 224.144531 194.011719 221.910156 C 194.011719 219.679688 192.203125 217.871094 189.96875 217.871094 Z M 189.96875 225.144531 C 188.183594 225.144531 186.738281 223.699219 186.738281 221.910156 C 186.738281 220.125 188.183594 218.679688 189.96875 218.679688 C 191.757812 218.679688 193.203125 220.125 193.203125 221.910156 C 193.203125 223.699219 191.757812 225.144531 189.96875 225.144531 Z M 189.96875 225.144531 " fill-opacity="1" fill-rule="nonzero"/></g><g clip-path="url(#111c0fec33)"><path fill="#000000" d="M 201.6875 217.871094 C 199.453125 217.871094 197.644531 219.679688 197.644531 221.910156 C 197.644531 224.144531 199.453125 225.953125 201.6875 225.953125 C 203.917969 225.953125 205.726562 224.144531 205.726562 221.910156 C 205.726562 219.679688 203.917969 217.871094 201.6875 217.871094 Z M 201.6875 225.144531 C 199.898438 225.144531 198.453125 223.699219 198.453125 221.910156 C 198.453125 220.125 199.898438 218.679688 201.6875 218.679688 C 203.472656 218.679688 204.917969 220.125 204.917969 221.910156 C 204.917969 223.699219 203.472656 225.144531 201.6875 225.144531 Z M 201.6875 225.144531 " fill-opacity="1" fill-rule="nonzero"/></g><g clip-path="url(#016494940e)"><path fill="#000000" d="M 213.398438 217.871094 C 211.167969 217.871094 209.359375 219.679688 209.359375 221.910156 C 209.359375 224.144531 211.167969 225.953125 213.398438 225.953125 C 215.632812 225.953125 217.441406 224.144531 217.441406 221.910156 C 217.441406 219.679688 215.632812 217.871094 213.398438 217.871094 Z M 213.398438 225.144531 C 211.613281 225.144531 210.167969 223.699219 210.167969 221.910156 C 210.167969 220.125 211.613281 218.679688 213.398438 218.679688 C 215.1875 218.679688 216.632812 220.125 216.632812 221.910156 C 216.632812 223.699219 215.1875 225.144531 213.398438 225.144531 Z M 213.398438 225.144531 " fill-opacity="1" fill-rule="nonzero"/></g><g clip-path="url(#a7d21fb7f2)"><path fill="#000000" d="M 224.652344 217.871094 C 222.421875 217.871094 220.613281 219.679688 220.613281 221.910156 C 220.613281 224.144531 222.421875 225.953125 224.652344 225.953125 C 226.886719 225.953125 228.695312 224.144531 228.695312 221.910156 C 228.695312 219.679688 226.886719 217.871094 224.652344 217.871094 Z M 224.652344 225.144531 C 222.867188 225.144531 221.421875 223.699219 221.421875 221.910156 C 221.421875 220.125 222.867188 218.679688 224.652344 218.679688 C 226.441406 218.679688 227.886719 220.125 227.886719 221.910156 C 227.886719 223.699219 226.441406 225.144531 224.652344 225.144531 Z M 224.652344 225.144531 " fill-opacity="1" fill-rule="nonzero"/></g><g clip-path="url(#62a10aece3)"><path fill="#000000" d="M 235.90625 217.871094 C 233.675781 217.871094 231.867188 219.679688 231.867188 221.910156 C 231.867188 224.144531 233.675781 225.953125 235.90625 225.953125 C 238.140625 225.953125 239.949219 224.144531 239.949219 221.910156 C 239.949219 219.679688 238.140625 217.871094 235.90625 217.871094 Z M 235.90625 225.144531 C 234.121094 225.144531 232.675781 223.699219 232.675781 221.910156 C 232.675781 220.125 234.121094 218.679688 235.90625 218.679688 C 237.695312 218.679688 239.140625 220.125 239.140625 221.910156 C 239.140625 223.699219 237.695312 225.144531 235.90625 225.144531 Z M 235.90625 225.144531 " fill-opacity="1" fill-rule="nonzero"/></g><g clip-path="url(#8e09999ca8)"><path fill="#000000" d="M 247.160156 217.871094 C 244.929688 217.871094 243.121094 219.679688 243.121094 221.910156 C 243.121094 224.144531 244.929688 225.953125 247.160156 225.953125 C 249.394531 225.953125 251.203125 224.144531 251.203125 221.910156 C 251.203125 219.679688 249.394531 217.871094 247.160156 217.871094 Z M 247.160156 225.144531 C 245.375 225.144531 243.929688 223.699219 243.929688 221.910156 C 243.929688 220.125 245.375 218.679688 247.160156 218.679688 C 248.949219 218.679688 250.394531 220.125 250.394531 221.910156 C 250.394531 223.699219 248.949219 225.144531 247.160156 225.144531 Z M 247.160156 225.144531 " fill-opacity="1" fill-rule="nonzero"/></g><g clip-path="url(#935f7c7d3b)"><path fill="#000000" d="M 258.875 217.871094 C 256.640625 217.871094 254.832031 219.679688 254.832031 221.910156 C 254.832031 224.144531 256.640625 225.953125 258.875 225.953125 C 261.109375 225.953125 262.917969 224.144531 262.917969 221.910156 C 262.917969 219.679688 261.109375 217.871094 258.875 217.871094 Z M 258.875 225.144531 C 257.089844 225.144531 255.640625 223.699219 255.640625 221.910156 C 255.640625 220.125 257.089844 218.679688 258.875 218.679688 C 260.660156 218.679688 262.109375 220.125 262.109375 221.910156 C 262.109375 223.699219 260.660156 225.144531 258.875 225.144531 Z M 258.875 225.144531 " fill-opacity="1" fill-rule="nonzero"/></g><g clip-path="url(#9a8db5c5ff)"><path fill="#000000" d="M 270.128906 217.871094 C 267.894531 217.871094 266.089844 219.679688 266.089844 221.910156 C 266.089844 224.144531 267.894531 225.953125 270.128906 225.953125 C 272.363281 225.953125 274.171875 224.144531 274.171875 221.910156 C 274.171875 219.679688 272.363281 217.871094 270.128906 217.871094 Z M 270.128906 225.144531 C 268.34375 225.144531 266.894531 223.699219 266.894531 221.910156 C 266.894531 220.125 268.34375 218.679688 270.128906 218.679688 C 271.914062 218.679688 273.363281 220.125 273.363281 221.910156 C 273.363281 223.699219 271.914062 225.144531 270.128906 225.144531 Z M 270.128906 225.144531 " fill-opacity="1" fill-rule="nonzero"/></g><g clip-path="url(#1e34a03e3a)"><path fill="#000000" d="M 281.382812 217.871094 C 279.152344 217.871094 277.34375 219.679688 277.34375 221.910156 C 277.34375 224.144531 279.152344 225.953125 281.382812 225.953125 C 283.617188 225.953125 285.425781 224.144531 285.425781 221.910156 C 285.425781 219.679688 283.617188 217.871094 281.382812 217.871094 Z M 281.382812 225.144531 C 279.597656 225.144531 278.148438 223.699219 278.148438 221.910156 C 278.148438 220.125 279.597656 218.679688 281.382812 218.679688 C 283.167969 218.679688 284.617188 220.125 284.617188 221.910156 C 284.617188 223.699219 283.167969 225.144531 281.382812 225.144531 Z M 281.382812 225.144531 " fill-opacity="1" fill-rule="nonzero"/></g><g clip-path="url(#54283a8f93)"><path fill="#000000" d="M 292.636719 217.871094 C 290.40625 217.871094 288.597656 219.679688 288.597656 221.910156 C 288.597656 224.144531 290.40625 225.953125 292.636719 225.953125 C 294.871094 225.953125 296.679688 224.144531 296.679688 221.910156 C 296.679688 219.679688 294.871094 217.871094 292.636719 217.871094 Z M 292.636719 225.144531 C 290.851562 225.144531 289.402344 223.699219 289.402344 221.910156 C 289.402344 220.125 290.851562 218.679688 292.636719 218.679688 C 294.421875 218.679688 295.871094 220.125 295.871094 221.910156 C 295.871094 223.699219 294.421875 225.144531 292.636719 225.144531 Z M 292.636719 225.144531 " fill-opacity="1" fill-rule="nonzero"/></g><g clip-path="url(#2c213e065a)"><path fill="#000000" d="M 304.351562 217.871094 C 302.117188 217.871094 300.308594 219.679688 300.308594 221.910156 C 300.308594 224.144531 302.117188 225.953125 304.351562 225.953125 C 306.582031 225.953125 308.390625 224.144531 308.390625 221.910156 C 308.390625 219.679688 306.582031 217.871094 304.351562 217.871094 Z M 304.351562 225.144531 C 302.566406 225.144531 301.117188 223.699219 301.117188 221.910156 C 301.117188 220.125 302.566406 218.679688 304.351562 218.679688 C 306.136719 218.679688 307.582031 220.125 307.582031 221.910156 C 307.582031 223.699219 306.136719 225.144531 304.351562 225.144531 Z M 304.351562 225.144531 " fill-opacity="1" fill-rule="nonzero"/></g><g clip-path="url(#c22220ab9f)"><path fill="#000000" d="M 315.605469 217.871094 C 313.371094 217.871094 311.5625 219.679688 311.5625 221.910156 C 311.5625 224.144531 313.371094 225.953125 315.605469 225.953125 C 317.835938 225.953125 319.644531 224.144531 319.644531 221.910156 C 319.644531 219.679688 317.835938 217.871094 315.605469 217.871094 Z M 315.605469 225.144531 C 313.820312 225.144531 312.371094 223.699219 312.371094 221.910156 C 312.371094 220.125 313.820312 218.679688 315.605469 218.679688 C 317.390625 218.679688 318.835938 220.125 318.835938 221.910156 C 318.835938 223.699219 317.390625 225.144531 315.605469 225.144531 Z M 315.605469 225.144531 " fill-opacity="1" fill-rule="nonzero"/></g><g clip-path="url(#8e347a8ca3)"><path fill="#000000" d="M 326.859375 217.871094 C 324.625 217.871094 322.816406 219.679688 322.816406 221.910156 C 322.816406 224.144531 324.625 225.953125 326.859375 225.953125 C 329.089844 225.953125 330.898438 224.144531 330.898438 221.910156 C 330.898438 219.679688 329.089844 217.871094 326.859375 217.871094 Z M 326.859375 225.144531 C 325.074219 225.144531 323.625 223.699219 323.625 221.910156 C 323.625 220.125 325.074219 218.679688 326.859375 218.679688 C 328.644531 218.679688 330.089844 220.125 330.089844 221.910156 C 330.089844 223.699219 328.644531 225.144531 326.859375 225.144531 Z M 326.859375 225.144531 " fill-opacity="1" fill-rule="nonzero"/></g><g clip-path="url(#dfbca73378)"><path fill="#000000" d="M 338.574219 217.871094 C 336.339844 217.871094 334.53125 219.679688 334.53125 221.910156 C 334.53125 224.144531 336.339844 225.953125 338.574219 225.953125 C 340.808594 225.953125 342.613281 224.144531 342.613281 221.910156 C 342.613281 219.679688 340.808594 217.871094 338.574219 217.871094 Z M 338.574219 225.144531 C 336.789062 225.144531 335.339844 223.699219 335.339844 221.910156 C 335.339844 220.125 336.789062 218.679688 338.574219 218.679688 C 340.359375 218.679688 341.808594 220.125 341.808594 221.910156 C 341.808594 223.699219 340.359375 225.144531 338.574219 225.144531 Z M 338.574219 225.144531 " fill-opacity="1" fill-rule="nonzero"/></g><g clip-path="url(#e577887f20)"><path fill="#000000" d="M 99.019531 218.035156 C 96.785156 218.035156 94.976562 219.84375 94.976562 222.078125 C 94.976562 224.308594 96.785156 226.117188 99.019531 226.117188 C 101.253906 226.117188 103.058594 224.308594 103.058594 222.078125 C 103.058594 219.84375 101.253906 218.035156 99.019531 218.035156 Z M 99.019531 225.308594 C 97.234375 225.308594 95.785156 223.863281 95.785156 222.078125 C 95.785156 220.289062 97.234375 218.84375 99.019531 218.84375 C 100.804688 218.84375 102.253906 220.289062 102.253906 222.078125 C 102.253906 223.863281 100.804688 225.308594 99.019531 225.308594 Z M 99.019531 225.308594 " fill-opacity="1" fill-rule="nonzero"/></g><g clip-path="url(#6d496592bb)"><path fill="#ffffff" d="M 95.011719 168.304688 L 103.433594 168.304688 L 103.433594 210.402344 L 95.011719 210.402344 Z M 95.011719 168.304688 " fill-opacity="1" fill-rule="nonzero"/></g><g clip-path="url(#dd2704c097)"><path fill="#000000" d="M 89.117188 202.292969 L 99.433594 212.757812 L 109.773438 202.292969 L 107.453125 199.949219 L 101.074219 206.382812 L 101.074219 166.984375 L 97.792969 166.984375 L 97.792969 206.382812 L 91.4375 199.949219 Z M 89.117188 202.292969 " fill-opacity="1" fill-rule="nonzero"/></g><g fill="#000000" fill-opacity="1"><g transform="translate(26.6024, 207.400504)"><g><path d="M 0.667969 0 L 4.347656 0 L 11.449219 -15.210938 L 48.894531 -15.210938 L 56 0 L 59.675781 0 L 32.261719 -58.589844 L 28.082031 -58.589844 Z M 12.871094 -18.472656 L 30.089844 -55.414062 L 30.257812 -55.414062 L 47.476562 -18.472656 Z M 12.871094 -18.472656 "/></g></g></g><path stroke-linecap="butt" transform="matrix(-0.000000000000000791, -0.754197, 0.75, -0.000000000000000787, 94.795076, 199.795064)" fill="none" stroke-linejoin="miter" d="M -0.00240059 2.002399 L 72.606896 2.002399 " stroke="#ffffff" stroke-width="4" stroke-opacity="1" stroke-miterlimit="4"/></svg>